<svg width="24" height="24" viewBox="0 0 24 24" fill="none" xmlns="http://www.w3.org/2000/svg">
<g clip-path="url(#clip0_2147_1915)">
<path d="M12.893 4.51449L20.87 18.5145C20.9353 18.6296 20.977 18.7566 20.9925 18.8881C21.008 19.0195 20.9971 19.1528 20.9604 19.2799C20.9237 19.4071 20.8619 19.5257 20.7788 19.6286C20.6956 19.7316 20.5926 19.8169 20.476 19.8795C20.3226 19.9631 20.1507 20.0068 19.976 20.0065H16.5L12 12.0065L9.5 16.0065H11L13 20.0065H4.023C3.458 20.0065 3 19.5565 3 19.0065C3 18.8355 3.045 18.6665 3.13 18.5165L11.107 4.52349C11.1981 4.36745 11.3285 4.23801 11.4851 4.14804C11.6418 4.05808 11.8193 4.01074 12 4.01074C12.1807 4.01074 12.3582 4.05808 12.5149 4.14804C12.6715 4.23801 12.8019 4.36745 12.893 4.52349V4.51449Z" stroke="white" stroke-width="2" stroke-linecap="round" stroke-linejoin="round"/>
</g>
<defs>
<clipPath id="clip0_2147_1915">
<rect width="24" height="24" fill="white"/>
</clipPath>
</defs>
</svg>
