<svg width="24" height="24" viewBox="0 0 24 24" fill="none" xmlns="http://www.w3.org/2000/svg">
<g clip-path="url(#clip0_2147_1890)">
<path d="M22 12.5396C20.196 12.1946 19.299 11.4596 18.477 9.59961C17.99 10.2956 17.375 11.1676 17.557 11.9996C17.585 12.2376 17.237 12.9996 17 12.9996H3C3 18.2076 6.164 19.9996 9.196 19.9996C13.32 20.0216 17.024 18.6236 19.05 14.9996C20.196 14.8986 21.346 13.4946 22 12.5396Z" stroke="white" stroke-width="2" stroke-linecap="round" stroke-linejoin="round"/>
<path d="M5 10H8V13H5V10Z" stroke="white" stroke-width="2" stroke-linecap="round" stroke-linejoin="round"/>
<path d="M8 10H11V13H8V10Z" stroke="white" stroke-width="2" stroke-linecap="round" stroke-linejoin="round"/>
<path d="M11 10H14V13H11V10Z" stroke="white" stroke-width="2" stroke-linecap="round" stroke-linejoin="round"/>
<path d="M8 7H11V10H8V7Z" stroke="white" stroke-width="2" stroke-linecap="round" stroke-linejoin="round"/>
<path d="M11 7H14V10H11V7Z" stroke="white" stroke-width="2" stroke-linecap="round" stroke-linejoin="round"/>
<path d="M11 4H14V7H11V4Z" stroke="white" stroke-width="2" stroke-linecap="round" stroke-linejoin="round"/>
<path d="M4.57031 17.9997C6.07031 17.9997 6.61731 17.9257 7.52831 17.2197" stroke="white" stroke-width="2" stroke-linecap="round" stroke-linejoin="round"/>
<path d="M10 16V16.01" stroke="white" stroke-width="2" stroke-linecap="round" stroke-linejoin="round"/>
</g>
<defs>
<clipPath id="clip0_2147_1890">
<rect width="24" height="24" fill="white"/>
</clipPath>
</defs>
</svg>
