<svg width="24" height="24" viewBox="0 0 24 24" fill="none" xmlns="http://www.w3.org/2000/svg">
<g clip-path="url(#clip0_2147_1955)">
<path d="M9 8.99959V17.0436C8.99994 17.3942 8.90769 17.7387 8.7325 18.0425C8.5573 18.3462 8.30533 18.5986 8.00184 18.7742C7.69836 18.9499 7.35402 19.0426 7.00337 19.0432C6.65272 19.0438 6.30808 18.9522 6.004 18.7776L4.436 17.8776C3.99725 17.6095 3.63475 17.2332 3.38328 16.7848C3.13182 16.3363 2.99984 15.8307 3 15.3166V8.68159C3.00001 8.16761 3.13207 7.66225 3.38353 7.21397C3.63498 6.7657 3.99739 6.38955 4.436 6.12159L10.436 2.45459C10.9069 2.16688 11.4481 2.01465 12 2.01465C12.5519 2.01465 13.0931 2.16688 13.564 2.45459L19.564 6.12159C20.0028 6.38963 20.3653 6.76594 20.6167 7.21441C20.8682 7.66287 21.0002 8.16844 21 8.68259V15.3166C21 15.8306 20.8679 16.3359 20.6165 16.7842C20.365 17.2325 20.0026 17.6086 19.564 17.8766L13.564 21.5436C13.0931 21.8313 12.5519 21.9835 12 21.9835C11.4481 21.9835 10.9069 21.8313 10.436 21.5436" stroke="white" stroke-width="2" stroke-linecap="round" stroke-linejoin="round"/>
<path d="M17 9H13.5C13.1022 9 12.7206 9.15804 12.4393 9.43934C12.158 9.72064 12 10.1022 12 10.5C12 10.8978 12.158 11.2794 12.4393 11.5607C12.7206 11.842 13.1022 12 13.5 12H15.5C15.8978 12 16.2794 12.158 16.5607 12.4393C16.842 12.7206 17 13.1022 17 13.5C17 13.8978 16.842 14.2794 16.5607 14.5607C16.2794 14.842 15.8978 15 15.5 15H12" stroke="white" stroke-width="2" stroke-linecap="round" stroke-linejoin="round"/>
</g>
<defs>
<clipPath id="clip0_2147_1955">
<rect width="24" height="24" fill="white"/>
</clipPath>
</defs>
</svg>
