<svg width="20" height="20" viewBox="0 0 20 20" fill="none" xmlns="http://www.w3.org/2000/svg">
<path d="M14.9541 0.229492C14.7109 0.229492 14.623 0.241211 14.5146 0.25C14.5088 0.25 14.5059 0.25 14.5 0.25C12.3437 0.25 11.5 1 11.5 1C11.5059 1.00586 11.5146 1.00879 11.5205 1.01465C11.415 1.00879 11.3184 1 11.21 0.997071C11.2012 0.997071 11.1924 0.997071 11.1836 0.997071C10.5185 0.997071 9.87402 1.10254 9.26757 1.28711C8.71972 0.997071 7.85839 0.645508 6.71874 0.4375C6.2207 0.323242 5.64648 0.244141 4.99316 0.244141C4.91405 0.244141 4.83495 0.247071 4.75585 0.25C4.75292 0.25 4.75292 0.25 4.74999 0.25C4.73241 0.25 4.71484 0.25 4.69726 0.25C3.56054 0.291016 2.26855 0.469727 1.32226 1.50391C0.504875 2.39453 0.153313 3.72754 0.249992 5.5791C0.288078 6.24414 0.542961 8.39746 1.07616 10.46C1.60644 12.5166 2.56738 15.25 4.74999 15.25C5.79003 15.25 7.34863 14.957 8.49413 14.3008C8.49706 14.3008 8.49999 14.2979 8.49999 14.2979C8.50292 14.5879 8.50292 14.7754 8.49999 15.2383C8.49999 15.2764 8.49999 15.3174 8.50292 15.3555L8.53808 15.8359C8.57031 16.2256 8.60253 16.6328 8.60253 16.8496C8.60253 18.3672 10.1406 19.75 11.8281 19.75C13.4746 19.75 15.25 18.4844 15.25 15.71V14.5322C15.3613 14.5293 15.5371 14.5293 15.5371 14.5293C16.0937 14.5586 16.8262 14.377 17.2539 14.1484C18.1768 13.6504 18.6807 12.877 17.7695 13.0938C17.3301 13.1992 17.0019 13.2285 16.7236 13.2314C17.3623 12.8066 18.0332 12.0654 18.5928 10.7793C19.709 8.21289 20.1748 3.72168 19.1201 2.13965C18.0156 0.478516 16.0351 0.229492 14.9541 0.229492ZM14.9541 1.72949C15.6924 1.72949 17.1484 1.87891 17.875 2.96875C18.6338 4.11426 18.1445 9.48438 16.4219 11.4971C16.5859 11.1865 16.706 10.7266 16.75 10C16.75 9.37598 16.7148 7.28711 16.75 7C16.7969 6.61035 16.7646 5.91309 16.75 5.5C16.7617 5.44434 16.7617 5.38574 16.7617 5.31836C16.7617 4.62402 16.5127 4.01465 16.1875 3.49316C16.1611 3.44336 16.1318 3.39355 16.0996 3.34375C16.0703 3.2998 16.0439 3.25586 16.0146 3.21484C15.7773 2.85742 15.4726 2.51758 15.0889 2.20996C14.7578 1.91992 14.5 1.75 14.5 1.75C14.5 1.75 14.6758 1.72949 14.9541 1.72949ZM4.99316 1.74414C5.9746 1.74414 6.73046 1.95801 7.40136 2.20703C7.3164 2.26855 7.22851 2.33301 7.14941 2.40039C6.44921 2.8252 6.03027 3.42871 5.79296 4.13477C5.60546 4.56836 5.49999 5.02832 5.49999 5.5C5.49999 5.55566 5.50878 5.6084 5.51464 5.66406C5.50585 5.85742 5.49999 6.05371 5.49999 6.25V6.25293C5.49999 6.25879 5.49999 6.26172 5.49999 6.26465C5.49999 6.33203 5.52343 6.44922 5.52343 6.61035C5.52343 7.375 5.49999 9.0332 5.49999 10C5.49999 11.6494 7.26367 13.0029 7.72363 13.0029C7.73242 13.0029 7.7412 13.0029 7.74999 13C6.87402 13.501 5.56152 13.75 4.74999 13.75C2.76073 13.75 1.81445 6.72754 1.74999 5.5C1.57714 2.22754 2.98339 1.81152 4.74999 1.75C4.83202 1.74707 4.91405 1.74414 4.99316 1.74414ZM11.1836 2.49707C12.499 2.51758 13.4101 2.83984 14.0312 3.28516C14.2891 3.49609 14.623 3.82129 14.8896 4.22852C15.1445 4.68262 15.25 5.14258 15.25 5.5C14.3066 5.5791 13.5215 5.62012 13.1728 6.17383C12.3789 7.43945 12.9736 9.57812 13.5303 10.5391C13.5889 10.6445 14.2393 11.2568 14.5 11.5C14.5937 11.5879 14.1543 11.708 14.0664 11.8018C13.8144 12.0625 13.8174 12.8506 13.7646 13.7383C13.7559 13.7471 13.75 13.75 13.75 13.75C13.75 13.75 13.7529 13.832 13.7588 13.9463C13.7559 14.0312 13.75 14.1074 13.75 14.1982V15.71C13.75 17.5938 12.7012 18.25 11.8281 18.25C10.8994 18.25 10.1025 17.4912 10.1025 16.8496C10.1025 16.4717 10.041 15.8271 9.99999 15.25C10.0088 13.917 9.99999 13.4336 9.99999 13C9.99999 12.5811 9.24999 12.25 9.24999 12.25C9.34374 12.0303 9.64843 11.582 9.64843 11.582C9.87402 11.0137 9.99413 10.4746 9.99999 9.25C10.0029 8.69043 9.92675 8.08105 9.76855 7.38379C9.55175 6.43164 8.83105 5.50879 7.74999 5.5H7.03515C7.06445 5.19531 7.11132 4.94336 7.17577 4.72949C7.36913 4.28711 7.72363 3.87109 8.17773 3.51953C8.2832 3.45801 8.38281 3.39649 8.46777 3.31445C9.2207 2.8252 10.1758 2.49707 11.1836 2.49707ZM7.0205 7H7.06152C7.04394 7.02051 7.02343 7.03809 7.0205 7.05859C7.0205 7.04102 7.01757 7.01758 7.0205 7ZM15.25 7.00586H15.2529C15.2353 7.28711 15.2295 7.76758 15.2441 9.2002C15.2471 9.53418 15.25 9.82422 15.25 10C15.25 10.0645 15.2588 10.0967 15.2646 10.1523C15.0742 9.97363 14.8603 9.77149 14.7666 9.6748C14.4883 9.13867 14.3008 8.35938 14.2978 7.73828C14.3652 7.75 14.4355 7.75293 14.5088 7.74121C14.9394 7.68262 15.2705 7.23438 15.25 7.06738C15.2471 7.04395 15.2236 7.0293 15.209 7.01172C15.2236 7.00879 15.2353 7.00586 15.25 7.00586ZM7.0205 7.10254C7.02636 7.28711 7.33691 7.69141 7.74999 7.75C7.95214 7.7793 8.12792 7.70605 8.27441 7.61524C8.2832 7.64746 8.29784 7.68262 8.3037 7.71484C8.43847 8.29785 8.50292 8.79883 8.49999 9.24414C8.49706 10.1963 8.41503 10.583 8.3037 10.8906C8.19531 11.0605 8.06933 11.2744 7.96386 11.4766C7.62109 11.2363 6.99999 10.5918 6.99999 10C6.99999 9.49023 7.00585 8.79004 7.01171 8.13086C7.01464 7.72656 7.01757 7.42188 7.0205 7.10254Z" fill="white"/>
</svg>
