<svg width="190" height="48" viewBox="0 0 190 48" fill="none" xmlns="http://www.w3.org/2000/svg">
<g filter="url(#filter0_d_1564_208)">
<path d="M32 0H181C183.761 0 186 2.23858 186 5V21.9289C186 23.255 185.473 24.5268 184.536 25.4645L171.464 38.5355C170.527 39.4732 169.255 40 167.929 40H4L14.5355 29.4645C15.4732 28.5268 16 27.255 16 25.9289V5C16 2.23858 18.2386 0 21 0H32Z" fill="url(#paint0_linear_1564_208)"/>
<path d="M32 0.5H181C183.485 0.5 185.5 2.51472 185.5 5V21.9289C185.5 23.1224 185.026 24.267 184.182 25.1109L171.111 38.182C170.267 39.0259 169.122 39.5 167.929 39.5H5.20711L14.8891 29.818C15.9205 28.7866 16.5 27.3876 16.5 25.9289V5C16.5 2.51472 18.5147 0.5 21 0.5H32Z" stroke="black"/>
</g>
<defs>
<filter id="filter0_d_1564_208" x="0" y="0" width="190" height="48" filterUnits="userSpaceOnUse" color-interpolation-filters="sRGB">
<feFlood flood-opacity="0" result="BackgroundImageFix"/>
<feColorMatrix in="SourceAlpha" type="matrix" values="0 0 0 0 0 0 0 0 0 0 0 0 0 0 0 0 0 0 127 0" result="hardAlpha"/>
<feOffset dy="4"/>
<feGaussianBlur stdDeviation="2"/>
<feComposite in2="hardAlpha" operator="out"/>
<feColorMatrix type="matrix" values="0 0 0 0 0 0 0 0 0 0 0 0 0 0 0 0 0 0 0.25 0"/>
<feBlend mode="normal" in2="BackgroundImageFix" result="effect1_dropShadow_1564_208"/>
<feBlend mode="normal" in="SourceGraphic" in2="effect1_dropShadow_1564_208" result="shape"/>
</filter>
<linearGradient id="paint0_linear_1564_208" x1="95" y1="0" x2="95" y2="40" gradientUnits="userSpaceOnUse">
<stop stop-color="#C2252C"/>
<stop offset="1" stop-color="#ED8127"/>
</linearGradient>
</defs>
</svg>
