<svg viewBox="0 0 48 48" fill="none" xmlns="http://www.w3.org/2000/svg">
<g clip-path="url(#clip0_1546_287)">
<path d="M20 26C20 27.0609 20.4214 28.0783 21.1716 28.8284C21.9217 29.5786 22.9391 30 24 30C25.0609 30 26.0783 29.5786 26.8284 28.8284C27.5786 28.0783 28 27.0609 28 26C28 24.9391 27.5786 23.9217 26.8284 23.1716C26.0783 22.4214 25.0609 22 24 22C22.9391 22 21.9217 22.4214 21.1716 23.1716C20.4214 23.9217 20 24.9391 20 26Z" stroke="currentColor" stroke-width="3" stroke-linecap="round" stroke-linejoin="round"/>
<path d="M16 42V40C16 38.9391 16.4214 37.9217 17.1716 37.1716C17.9217 36.4214 18.9391 36 20 36H28C29.0609 36 30.0783 36.4214 30.8284 37.1716C31.5786 37.9217 32 38.9391 32 40V42" stroke="currentColor" stroke-width="3" stroke-linecap="round" stroke-linejoin="round"/>
<path d="M30 10C30 11.0609 30.4214 12.0783 31.1716 12.8284C31.9217 13.5786 32.9391 14 34 14C35.0609 14 36.0783 13.5786 36.8284 12.8284C37.5786 12.0783 38 11.0609 38 10C38 8.93913 37.5786 7.92172 36.8284 7.17157C36.0783 6.42143 35.0609 6 34 6C32.9391 6 31.9217 6.42143 31.1716 7.17157C30.4214 7.92172 30 8.93913 30 10Z" stroke="currentColor" stroke-width="3" stroke-linecap="round" stroke-linejoin="round"/>
<path d="M34 20H38C39.0609 20 40.0783 20.4214 40.8284 21.1716C41.5786 21.9217 42 22.9391 42 24V26" stroke="currentColor" stroke-width="3" stroke-linecap="round" stroke-linejoin="round"/>
<path d="M10 10C10 11.0609 10.4214 12.0783 11.1716 12.8284C11.9217 13.5786 12.9391 14 14 14C15.0609 14 16.0783 13.5786 16.8284 12.8284C17.5786 12.0783 18 11.0609 18 10C18 8.93913 17.5786 7.92172 16.8284 7.17157C16.0783 6.42143 15.0609 6 14 6C12.9391 6 11.9217 6.42143 11.1716 7.17157C10.4214 7.92172 10 8.93913 10 10Z" stroke="currentColor" stroke-width="3" stroke-linecap="round" stroke-linejoin="round"/>
<path d="M6 26V24C6 22.9391 6.42143 21.9217 7.17157 21.1716C7.92172 20.4214 8.93913 20 10 20H14" stroke="currentColor" stroke-width="3" stroke-linecap="round" stroke-linejoin="round"/>
</g>
<defs>
<clipPath id="clip0_1546_287">
<rect width="48" height="48" fill="currentColor"/>
</clipPath>
</defs>
</svg>
