<svg viewBox="0 0 65 64" fill="none" xmlns="http://www.w3.org/2000/svg">
<g clip-path="url(#clip0_1516_212)">
<path d="M52.5005 33.5253L32.5005 53.3333L12.5005 33.5253C11.1813 32.2416 10.1422 30.6987 9.4486 28.9937C8.75502 27.2887 8.42198 25.4585 8.47044 23.6185C8.51891 21.7784 8.94785 19.9683 9.73023 18.3022C10.5126 16.6361 11.6315 15.15 13.0164 13.9375C14.4014 12.7251 16.0224 11.8125 17.7773 11.2573C19.5323 10.702 21.3832 10.5162 23.2135 10.7115C25.0438 10.9067 26.8138 11.4788 28.4121 12.3917C30.0105 13.3047 31.4025 14.5387 32.5005 16.016C33.6032 14.5494 34.9968 13.3262 36.5941 12.4229C38.1913 11.5197 39.9578 10.9558 41.783 10.7667C43.6081 10.5776 45.4527 10.7672 47.2012 11.3237C48.9497 11.8802 50.5645 12.7916 51.9446 14.001C53.3247 15.2103 54.4403 16.6914 55.2216 18.3517C56.0029 20.012 56.4331 21.8157 56.4853 23.6499C56.5375 25.4841 56.2105 27.3093 55.5248 29.0113C54.8392 30.7133 53.8096 32.2555 52.5005 33.5413" stroke="white" stroke-opacity="0.85" stroke-width="4" stroke-linecap="round" stroke-linejoin="round"/>
<path d="M32.4996 16L23.7183 24.7813C23.2183 25.2814 22.9375 25.9596 22.9375 26.6667C22.9375 27.3738 23.2183 28.0519 23.7183 28.552L25.1663 30C27.0063 31.84 29.9929 31.84 31.8329 30L34.4996 27.3333C36.0909 25.742 38.2492 24.8481 40.4996 24.8481C42.75 24.8481 44.9083 25.742 46.4996 27.3333L52.4996 33.3333" stroke="white" stroke-opacity="0.85" stroke-width="4" stroke-linecap="round" stroke-linejoin="round"/>
<path d="M33.833 41.3335L39.1663 46.6668" stroke="white" stroke-opacity="0.85" stroke-width="4" stroke-linecap="round" stroke-linejoin="round"/>
<path d="M40.5 34.6665L45.8333 39.9998" stroke="white" stroke-opacity="0.85" stroke-width="4" stroke-linecap="round" stroke-linejoin="round"/>
</g>
<defs>
<clipPath id="clip0_1516_212">
<rect width="64" height="64" fill="white" transform="translate(0.5)"/>
</clipPath>
</defs>
</svg>
