<svg width="220" height="128" viewBox="0 0 220 128" fill="none" xmlns="http://www.w3.org/2000/svg">
<path d="M14.364 3.05025C15.2624 2.15184 15.6009 1.82242 15.9811 1.58944L15.4586 0.736799L15.9811 1.58944C16.339 1.37012 16.7291 1.20851 17.1373 1.11052C17.5709 1.00643 18.0432 1 19.3137 1H212C213.417 1 214.419 1.00078 215.203 1.0648C215.974 1.12787 216.446 1.24729 216.816 1.43597C217.569 1.81947 218.181 2.43139 218.564 3.18404C218.753 3.55435 218.872 4.02552 218.935 4.79744C218.999 5.58104 219 6.58337 219 8V108.686C219 109.957 218.994 110.429 218.889 110.863C218.791 111.271 218.63 111.661 218.411 112.019C218.178 112.399 217.848 112.738 216.95 113.636L205.636 124.95C204.738 125.848 204.399 126.178 204.019 126.411C203.661 126.63 203.271 126.791 202.863 126.889C202.429 126.994 201.957 127 200.686 127H8C6.58337 127 5.58104 126.999 4.79744 126.935C4.02552 126.872 3.55435 126.753 3.18404 126.564C2.43139 126.181 1.81947 125.569 1.43597 124.816L0.544967 125.27L1.43597 124.816C1.24729 124.446 1.12787 123.974 1.0648 123.203C1.00078 122.419 1 121.417 1 120V19.3137C1 18.0432 1.00643 17.5709 1.11052 17.1373C1.20851 16.7291 1.37012 16.339 1.58944 15.9811L0.736799 15.4586L1.58944 15.9811C1.82242 15.6009 2.15184 15.2624 3.05025 14.364L14.364 3.05025Z" fill="white" stroke="#EBEAED" stroke-width="2"/>
</svg>
