<svg xmlns="http://www.w3.org/2000/svg" viewBox="0 0 290 128" fill="none">
  <path d="M1.43597 124.816L0.544967 125.27L1.43597 124.816C1.24729 124.446 1.12787 123.974 1.0648 123.203C1.00078 122.419 1 121.417 1 120V19.3137C1 18.0432 1.00643 17.5709 1.11052 17.1373C1.20851 16.7291 1.37012 16.339 1.58944 15.9811L0.736799 15.4586L1.58944 15.9811C1.82242 15.6009 2.15184 15.2624 3.05025 14.364L14.364 3.05025C15.2624 2.15184 15.6009 1.82242 15.9811 1.58944L15.4586 0.736799L15.9811 1.58944C16.339 1.37012 16.7291 1.20851 17.1373 1.11052C17.5709 1.00643 18.0432 1 19.3137 1H282C283.417 1 284.419 1.00078 285.203 1.0648C285.974 1.12787 286.446 1.24729 286.816 1.43597C287.569 1.81947 288.181 2.4314 288.564 3.18404C288.753 3.55434 288.872 4.02552 288.935 4.79744C288.999 5.58103 289 6.58337 289 8V108.686C289 109.957 288.994 110.429 288.889 110.863C288.792 111.271 288.63 111.661 288.411 112.019C288.178 112.399 287.848 112.738 286.95 113.636L275.636 124.95C274.738 125.848 274.399 126.178 274.019 126.411L274.509 127.21L274.019 126.411C273.661 126.63 273.271 126.791 272.863 126.889C272.429 126.994 271.957 127 270.686 127H8C6.58337 127 5.58104 126.999 4.79744 126.935C4.02552 126.872 3.55435 126.753 3.18404 126.564C2.43139 126.181 1.81947 125.569 1.43597 124.816Z" fill="white" stroke="#EBEAED" stroke-width="2"/>
</svg>