<svg width="380" height="128" viewBox="0 0 380 128" fill="none" xmlns="http://www.w3.org/2000/svg">
<path d="M1.43597 124.816L0.544967 125.27L1.43597 124.816C1.24729 124.446 1.12787 123.974 1.0648 123.203C1.00078 122.419 1 121.417 1 120V19.3137C1 18.0432 1.00643 17.5709 1.11052 17.1373C1.20851 16.7291 1.37012 16.339 1.58944 15.9811L0.736799 15.4586L1.58944 15.9811C1.82242 15.6009 2.15184 15.2624 3.05025 14.364L14.364 3.05025C15.2624 2.15184 15.6009 1.82242 15.9811 1.58944L15.4586 0.736799L15.9811 1.58944C16.339 1.37012 16.7291 1.20851 17.1373 1.11052C17.5709 1.00643 18.0432 1 19.3137 1H372C373.417 1 374.419 1.00078 375.203 1.0648C375.974 1.12787 376.446 1.24729 376.816 1.43597C377.569 1.81947 378.181 2.4314 378.564 3.18404C378.753 3.55434 378.872 4.02552 378.935 4.79744C378.999 5.58103 379 6.58337 379 8V108.686C379 109.957 378.994 110.429 378.889 110.863C378.792 111.271 378.63 111.661 378.411 112.019C378.178 112.399 377.848 112.738 376.95 113.636L365.636 124.95C364.738 125.848 364.399 126.178 364.019 126.411L364.509 127.21L364.019 126.411C363.661 126.63 363.271 126.791 362.863 126.889C362.429 126.994 361.957 127 360.686 127H8C6.58337 127 5.58104 126.999 4.79744 126.935C4.02552 126.872 3.55435 126.753 3.18404 126.564C2.43139 126.181 1.81947 125.569 1.43597 124.816Z" fill="white" stroke="#EBEAED" stroke-width="2"/>
</svg>
