<svg width="32" height="32" viewBox="0 0 32 32" fill="none" xmlns="http://www.w3.org/2000/svg">
<g clip-path="url(#clip0_2849_656)">
<path d="M18.667 25.3333H13.3337C10.5047 25.3333 7.79157 24.2095 5.79119 22.2091C3.7908 20.2088 2.66699 17.4956 2.66699 14.6667V8H8.00033V14.6667C8.00033 16.0812 8.56223 17.4377 9.56242 18.4379C10.5626 19.4381 11.9192 20 13.3337 20V8H18.667V14H18.707C20.1683 13.8177 21.5128 13.1078 22.4875 12.0039C23.4623 10.9 24.0003 9.47802 24.0003 8.00533H29.3337L28.8777 10.2867C28.6045 11.6521 28.0232 12.9372 27.1779 14.0438C26.3327 15.1504 25.2458 16.0493 24.0003 16.672C25.2115 17.0755 26.2918 17.7972 27.1283 18.7615C27.9648 19.7259 28.5266 20.8973 28.755 22.1533L29.3337 25.3387H24.0003C24.0003 23.866 23.4623 22.444 22.4875 21.3401C21.5128 20.2362 20.1683 19.5263 18.707 19.344V25.344L18.667 25.3333Z" stroke="currentColor" stroke-width="2" stroke-linecap="round" stroke-linejoin="round"/>
</g>
<defs>
<clipPath id="clip0_2849_656">
<rect width="32" height="32" fill="white"/>
</clipPath>
</defs>
</svg>
