<svg width="24" height="24" viewBox="0 0 24 24" fill="none" xmlns="http://www.w3.org/2000/svg">
<g clip-path="url(#clip0_1564_196)">
<path d="M14.8277 14.8278C15.2097 14.4588 15.5144 14.0175 15.7241 13.5295C15.9337 13.0414 16.0441 12.5166 16.0487 11.9854C16.0533 11.4543 15.9521 10.9276 15.751 10.436C15.5498 9.94443 15.2528 9.49783 14.8773 9.12226C14.5017 8.74669 14.0551 8.44967 13.5635 8.24855C13.0719 8.04743 12.5452 7.94622 12.0141 7.95083C11.483 7.95545 10.9581 8.0658 10.4701 8.27543C9.98204 8.48507 9.54066 8.7898 9.17168 9.17184C8.44304 9.92624 8.03987 10.9367 8.04898 11.9854C8.05809 13.0342 8.47877 14.0375 9.2204 14.7791C9.96203 15.5207 10.9653 15.9414 12.0141 15.9505C13.0629 15.9596 14.0733 15.5565 14.8277 14.8278Z" stroke="white" stroke-width="1.5" stroke-linecap="round" stroke-linejoin="round"/>
<path d="M6.34271 17.6572L4.92871 19.0712" stroke="white" stroke-width="1.5" stroke-linecap="round" stroke-linejoin="round"/>
<path d="M6.34271 6.3432L4.92871 4.9292" stroke="white" stroke-width="1.5" stroke-linecap="round" stroke-linejoin="round"/>
<path d="M17.6572 6.3432L19.0712 4.9292" stroke="white" stroke-width="1.5" stroke-linecap="round" stroke-linejoin="round"/>
<path d="M17.6572 17.6572L19.0712 19.0712" stroke="white" stroke-width="1.5" stroke-linecap="round" stroke-linejoin="round"/>
<path d="M4 12H2" stroke="white" stroke-width="1.5" stroke-linecap="round" stroke-linejoin="round"/>
<path d="M12 4V2" stroke="white" stroke-width="1.5" stroke-linecap="round" stroke-linejoin="round"/>
<path d="M20 12H22" stroke="white" stroke-width="1.5" stroke-linecap="round" stroke-linejoin="round"/>
<path d="M12 20V22" stroke="white" stroke-width="1.5" stroke-linecap="round" stroke-linejoin="round"/>
</g>
<defs>
<clipPath id="clip0_1564_196">
<rect width="24" height="24" fill="white"/>
</clipPath>
</defs>
</svg>
