<svg width="24" height="24" viewBox="0 0 24 24" fill="none" xmlns="http://www.w3.org/2000/svg">
<path d="M16.881 3.75C16.704 3.75 16.5304 3.83423 16.4269 3.99023C16.4194 3.99773 16.4124 4.01332 16.4049 4.02832C15.3182 5.84557 14.6462 6.65771 13.4972 6.65771C12.256 6.65771 10.4572 5.70837 6.97719 4.05762C6.90144 4.02012 6.82085 4.00342 6.74135 4.00342C6.5396 4.00342 6.34444 4.11971 6.24769 4.31396C6.24769 4.31396 6.24787 4.32111 6.24037 4.32861L4.54994 8.16211C4.42244 8.43286 4.55019 8.75549 4.82094 8.87549C5.56494 9.22874 7.04472 9.92821 8.38197 10.5747C10.4925 11.5947 12.2448 12 13.7111 12C18.0333 12 19.8538 8.47355 20.9196 6.7793C21.0771 6.52355 20.9944 6.19266 20.7394 6.03516L17.1857 3.84082C17.0912 3.77932 16.9852 3.75 16.881 3.75ZM17.193 5.60742L19.1369 6.80859C17.8776 8.79984 16.4471 10.5 13.7111 10.5C12.3588 10.5 10.7865 10.0709 9.03529 9.22412C8.09179 8.76812 7.076 8.28502 6.2975 7.91602L7.21596 5.83447C7.34421 5.89597 7.46942 5.95615 7.59242 6.01465C10.4829 7.39615 12.0745 8.15771 13.4957 8.15771C15.223 8.15771 16.2285 7.09842 17.193 5.60742ZM10.2833 12C5.96034 12 4.14195 15.5436 3.0807 17.2236C2.9232 17.4794 3.00513 17.8183 3.26088 17.9766L6.82484 20.168C6.91484 20.2235 7.0137 20.25 7.11195 20.25C7.2942 20.25 7.47431 20.1588 7.57631 19.9878C8.65856 18.166 9.32824 17.3525 10.4855 17.3525C11.726 17.3525 13.5229 18.301 17.0187 19.957C17.0967 19.9953 17.1787 20.0142 17.2589 20.0142C17.4637 20.0142 17.6559 19.8971 17.7482 19.7021C17.7557 19.7021 17.7555 19.6935 17.7555 19.686L19.4547 15.8467C19.5747 15.5759 19.4472 15.2526 19.1764 15.1318C18.4324 14.7778 16.9503 14.0775 15.6198 13.437C13.5063 12.4088 11.7511 12 10.2833 12ZM10.2833 13.5C11.6363 13.5 13.2121 13.9333 14.9708 14.7891C15.9113 15.2413 16.9257 15.723 17.7042 16.0928L16.7799 18.1816C16.6382 18.1141 16.5004 18.0484 16.3654 17.9839C13.4869 16.6091 11.9015 15.8525 10.4855 15.8525C8.75599 15.8525 7.75326 16.9054 6.79701 18.3896L4.86049 17.2002C6.12124 15.2067 7.54884 13.5 10.2833 13.5Z" fill="white"/>
</svg>
