<svg width="24" height="24" viewBox="0 0 24 24" fill="none" xmlns="http://www.w3.org/2000/svg">
<g clip-path="url(#clip0_2202_1576)">
<path d="M12.1143 -0.0268555L11.3791 0.506901C11.3329 0.540433 11.293 0.579849 11.2482 0.614898C10.9488 0.849443 10.6824 1.11642 10.4528 1.41034L1.36649 10.4967C0.545154 11.3182 0.545154 12.6824 1.36649 13.504L11.89 24.0275L12.6252 23.4937C12.6714 23.4602 12.7113 23.4208 12.7561 23.3857C13.0553 23.1511 13.322 22.8842 13.5515 22.5903L22.6378 13.504C23.4591 12.6824 23.4591 11.3182 22.6378 10.4967L12.1143 -0.0268555ZM12.0499 2.91607L21.1342 12.0003L14.3989 18.7356C14.2187 17.8839 13.8943 17.0703 13.404 16.3534L17.753 12.0045L12.8474 7.04697C12.1263 6.30535 11.6913 5.33715 11.5972 4.30758C11.5898 3.79563 11.7762 3.33226 12.0499 2.91607ZM9.60544 5.26501C9.78497 6.11648 10.1105 6.92619 10.6003 7.64303V7.64511L6.24714 11.9962L11.1527 16.9536C11.8744 17.6941 12.3115 18.662 12.4071 19.691C12.4148 20.2037 12.2285 20.6677 11.9544 21.0845L2.87015 12.0003L9.60544 5.26501ZM12.0188 9.23184L14.754 11.9962L11.9814 14.7688L9.24614 12.0045L12.0188 9.23184Z" fill="white"/>
</g>
<defs>
<clipPath id="clip0_2202_1576">
<rect width="24" height="24" fill="white"/>
</clipPath>
</defs>
</svg>
