<svg viewBox="0 0 48 48" fill="none" xmlns="http://www.w3.org/2000/svg">
<g clip-path="url(#clip0_1546_295)">
<path d="M16 14C16 16.1217 16.8429 18.1566 18.3431 19.6569C19.8434 21.1571 21.8783 22 24 22C26.1217 22 28.1566 21.1571 29.6569 19.6569C31.1571 18.1566 32 16.1217 32 14C32 11.8783 31.1571 9.84344 29.6569 8.34315C28.1566 6.84285 26.1217 6 24 6C21.8783 6 19.8434 6.84285 18.3431 8.34315C16.8429 9.84344 16 11.8783 16 14Z" stroke="currentColor" stroke-width="3" stroke-linecap="round" stroke-linejoin="round"/>
<path d="M12 42V38C12 35.8783 12.8429 33.8434 14.3431 32.3431C15.8434 30.8429 17.8783 30 20 30H27" stroke="currentColor" stroke-width="3" stroke-linecap="round" stroke-linejoin="round"/>
<path d="M40 42L44 38L40 34" stroke="currentColor" stroke-width="3" stroke-linecap="round" stroke-linejoin="round"/>
<path d="M34 34L30 38L34 42" stroke="currentColor" stroke-width="3" stroke-linecap="round" stroke-linejoin="round"/>
</g>
<defs>
<clipPath id="clip0_1546_295">
<rect width="48" height="48" fill="currentColor"/>
</clipPath>
</defs>
</svg>
