<svg viewBox="0 0 370 112" fill="none" xmlns="http://www.w3.org/2000/svg">
<path d="M13.6569 2.34314C14.5216 1.47839 14.954 1.04601 15.4586 0.736799C15.9059 0.462656 16.3937 0.260634 16.9038 0.13815C17.4793 0 18.0908 0 19.3137 0H362C364.8 0 366.2 0 367.27 0.544967C368.211 1.02433 368.976 1.78924 369.455 2.73005C370 3.79961 370 5.19974 370 8V92.6863C370 93.9092 370 94.5207 369.862 95.0962C369.739 95.6063 369.537 96.0941 369.263 96.5414C368.954 97.046 368.522 97.4784 367.657 98.3431L356.343 109.657C355.478 110.522 355.046 110.954 354.541 111.263C354.094 111.537 353.606 111.739 353.096 111.862C352.521 112 351.909 112 350.686 112H8C5.19974 112 3.79961 112 2.73005 111.455C1.78924 110.976 1.02433 110.211 0.544967 109.27C0 108.2 0 106.8 0 104V19.3137C0 18.0908 0 17.4793 0.13815 16.9038C0.260634 16.3937 0.462656 15.9059 0.736799 15.4586C1.04601 14.954 1.47839 14.5216 2.34315 13.6569L13.6569 2.34314Z" fill="white"/>
<path d="M1.43597 108.816L0.544967 109.27L1.43597 108.816C1.24729 108.446 1.12787 107.974 1.0648 107.203C1.00078 106.419 1 105.417 1 104V19.3137C1 18.0432 1.00643 17.5709 1.11052 17.1373C1.20851 16.7291 1.37012 16.339 1.58944 15.9811L0.736799 15.4586L1.58944 15.9811C1.82242 15.6009 2.15184 15.2624 3.05025 14.364L14.364 3.05025C15.2624 2.15184 15.6009 1.82242 15.9811 1.58944L15.4586 0.736799L15.9811 1.58944C16.339 1.37012 16.7291 1.20851 17.1373 1.11052C17.5709 1.00643 18.0432 1 19.3137 1H362C363.417 1 364.419 1.00078 365.203 1.0648C365.974 1.12787 366.446 1.24729 366.816 1.43597C367.569 1.81947 368.181 2.4314 368.564 3.18404C368.753 3.55434 368.872 4.02552 368.935 4.79744C368.999 5.58103 369 6.58337 369 8V92.6863C369 93.9568 368.994 94.4291 368.889 94.8627C368.792 95.2709 368.63 95.661 368.411 96.0189C368.178 96.3991 367.848 96.7376 366.95 97.636L355.636 108.95C354.738 109.848 354.399 110.178 354.019 110.411L354.541 111.263L354.019 110.411C353.661 110.63 353.271 110.791 352.863 110.889C352.429 110.994 351.957 111 350.686 111H8C6.58337 111 5.58103 110.999 4.79744 110.935C4.02552 110.872 3.55435 110.753 3.18404 110.564C2.43139 110.181 1.81947 109.569 1.43597 108.816Z" stroke="currentColor" stroke-width="2"/>
</svg>
