<svg width="32" height="32" viewBox="0 0 32 32" fill="none" xmlns="http://www.w3.org/2000/svg">
<g clip-path="url(#clip0_2849_659)">
<path d="M5.33301 10.6668C5.33301 9.25234 5.89491 7.89579 6.8951 6.89559C7.8953 5.8954 9.25185 5.3335 10.6663 5.3335H21.333C22.7475 5.3335 24.104 5.8954 25.1042 6.89559C26.1044 7.89579 26.6663 9.25234 26.6663 10.6668V21.3335C26.6663 22.748 26.1044 24.1045 25.1042 25.1047C24.104 26.1049 22.7475 26.6668 21.333 26.6668H10.6663C9.25185 26.6668 7.8953 26.1049 6.8951 25.1047C5.89491 24.1045 5.33301 22.748 5.33301 21.3335V10.6668Z" stroke="currentColor" stroke-width="2" stroke-linecap="round" stroke-linejoin="round"/>
<path d="M12 16C12 17.0609 12.4214 18.0783 13.1716 18.8284C13.9217 19.5786 14.9391 20 16 20C17.0609 20 18.0783 19.5786 18.8284 18.8284C19.5786 18.0783 20 17.0609 20 16C20 14.9391 19.5786 13.9217 18.8284 13.1716C18.0783 12.4214 17.0609 12 16 12C14.9391 12 13.9217 12.4214 13.1716 13.1716C12.4214 13.9217 12 14.9391 12 16Z" stroke="currentColor" stroke-width="2" stroke-linecap="round" stroke-linejoin="round"/>
<path d="M22 10V10.0133" stroke="currentColor" stroke-width="2" stroke-linecap="round" stroke-linejoin="round"/>
</g>
<defs>
<clipPath id="clip0_2849_659">
<rect width="32" height="32" fill="white"/>
</clipPath>
</defs>
</svg>
