<svg xmlns="http://www.w3.org/2000/svg" viewBox="0 0 410 112" fill="none">
  <path d="M1.43597 108.816L0.544967 109.27L1.43597 108.816C1.24729 108.446 1.12787 107.974 1.0648 107.203C1.00078 106.419 1 105.417 1 104V19.3137C1 18.0432 1.00643 17.5709 1.11052 17.1373C1.20851 16.7291 1.37012 16.339 1.58944 15.9811L0.736799 15.4586L1.58944 15.9811C1.82242 15.6009 2.15184 15.2624 3.05025 14.364L14.364 3.05025C15.2624 2.15184 15.6009 1.82242 15.9811 1.58944L15.4586 0.736799L15.9811 1.58944C16.339 1.37012 16.7291 1.20851 17.1373 1.11052C17.5709 1.00643 18.0432 1 19.3137 1H402C403.417 1 404.419 1.00078 405.203 1.0648C405.974 1.12787 406.446 1.24729 406.816 1.43597C407.569 1.81947 408.181 2.4314 408.564 3.18404C408.753 3.55434 408.872 4.02552 408.935 4.79744C408.999 5.58103 409 6.58337 409 8V92.6863C409 93.9568 408.994 94.4291 408.889 94.8627C408.792 95.2709 408.63 95.661 408.411 96.0189C408.178 96.3991 407.848 96.7376 406.95 97.636L395.636 108.95C394.738 109.848 394.399 110.178 394.019 110.411L394.541 111.263L394.019 110.411C393.661 110.63 393.271 110.791 392.863 110.889C392.429 110.994 391.957 111 390.686 111H8C6.58337 111 5.58103 110.999 4.79744 110.935C4.02552 110.872 3.55435 110.753 3.18404 110.564C2.43139 110.181 1.81947 109.569 1.43597 108.816Z" fill="white" stroke="currentColor" stroke-width="2"/>
</svg>