<svg width="32" height="32" viewBox="0 0 32 32" fill="none" xmlns="http://www.w3.org/2000/svg">
<g id="Frame" clip-path="url(#clip0_2845_634)">
<path id="Vector" d="M5.33301 8.00016C5.33301 7.29292 5.61396 6.61464 6.11406 6.11454C6.61415 5.61445 7.29243 5.3335 7.99967 5.3335H23.9997C24.7069 5.3335 25.3852 5.61445 25.8853 6.11454C26.3854 6.61464 26.6663 7.29292 26.6663 8.00016V24.0002C26.6663 24.7074 26.3854 25.3857 25.8853 25.8858C25.3852 26.3859 24.7069 26.6668 23.9997 26.6668H7.99967C7.29243 26.6668 6.61415 26.3859 6.11406 25.8858C5.61396 25.3857 5.33301 24.7074 5.33301 24.0002V8.00016Z" stroke="currentColor" stroke-width="2" stroke-linecap="round" stroke-linejoin="round"/>
<path id="Vector_2" d="M10.667 14.6665V21.3332" stroke="currentColor" stroke-width="2" stroke-linecap="round" stroke-linejoin="round"/>
<path id="Vector_3" d="M10.667 10.6665V10.6798" stroke="currentColor" stroke-width="2" stroke-linecap="round" stroke-linejoin="round"/>
<path id="Vector_4" d="M16 21.3332V14.6665" stroke="currentColor" stroke-width="2" stroke-linecap="round" stroke-linejoin="round"/>
<path id="Vector_5" d="M21.3333 21.3332V17.3332C21.3333 16.6259 21.0524 15.9477 20.5523 15.4476C20.0522 14.9475 19.3739 14.6665 18.6667 14.6665C17.9594 14.6665 17.2811 14.9475 16.781 15.4476C16.281 15.9477 16 16.6259 16 17.3332" stroke="currentColor" stroke-width="2" stroke-linecap="round" stroke-linejoin="round"/>
</g>
<defs>
<clipPath id="clip0_2845_634">
<rect width="32" height="32" fill="white"/>
</clipPath>
</defs>
</svg>
