<svg viewBox="0 0 64 64" fill="none" xmlns="http://www.w3.org/2000/svg">
<g clip-path="url(#clip0_1516_189)">
<path d="M10.667 42.6668L26.667 24.0002L40.0003 37.3335L53.3337 21.3335" stroke="white" stroke-opacity="0.85" stroke-width="4" stroke-linecap="round" stroke-linejoin="round"/>
<path d="M37.333 37.3332C37.333 38.0404 37.614 38.7187 38.1141 39.2188C38.6142 39.7189 39.2924 39.9998 39.9997 39.9998C40.7069 39.9998 41.3852 39.7189 41.8853 39.2188C42.3854 38.7187 42.6663 38.0404 42.6663 37.3332C42.6663 36.6259 42.3854 35.9477 41.8853 35.4476C41.3852 34.9475 40.7069 34.6665 39.9997 34.6665C39.2924 34.6665 38.6142 34.9475 38.1141 35.4476C37.614 35.9477 37.333 36.6259 37.333 37.3332Z" stroke="white" stroke-opacity="0.85" stroke-width="4" stroke-linecap="round" stroke-linejoin="round"/>
<path d="M24 24.0002C24 24.7074 24.281 25.3857 24.781 25.8858C25.2811 26.3859 25.9594 26.6668 26.6667 26.6668C27.3739 26.6668 28.0522 26.3859 28.5523 25.8858C29.0524 25.3857 29.3333 24.7074 29.3333 24.0002C29.3333 23.2929 29.0524 22.6146 28.5523 22.1145C28.0522 21.6144 27.3739 21.3335 26.6667 21.3335C25.9594 21.3335 25.2811 21.6144 24.781 22.1145C24.281 22.6146 24 23.2929 24 24.0002Z" stroke="white" stroke-opacity="0.85" stroke-width="4" stroke-linecap="round" stroke-linejoin="round"/>
<path d="M8 42.6667C8 43.3739 8.28095 44.0522 8.78105 44.5523C9.28115 45.0524 9.95942 45.3333 10.6667 45.3333C11.3739 45.3333 12.0522 45.0524 12.5523 44.5523C13.0524 44.0522 13.3333 43.3739 13.3333 42.6667C13.3333 41.9594 13.0524 41.2811 12.5523 40.781C12.0522 40.281 11.3739 40 10.6667 40C9.95942 40 9.28115 40.281 8.78105 40.781C8.28095 41.2811 8 41.9594 8 42.6667Z" stroke="white" stroke-opacity="0.85" stroke-width="4" stroke-linecap="round" stroke-linejoin="round"/>
<path d="M50.667 21.3332C50.667 22.0404 50.9479 22.7187 51.448 23.2188C51.9481 23.7189 52.6264 23.9998 53.3337 23.9998C54.0409 23.9998 54.7192 23.7189 55.2193 23.2188C55.7194 22.7187 56.0003 22.0404 56.0003 21.3332C56.0003 20.6259 55.7194 19.9477 55.2193 19.4476C54.7192 18.9475 54.0409 18.6665 53.3337 18.6665C52.6264 18.6665 51.9481 18.9475 51.448 19.4476C50.9479 19.9477 50.667 20.6259 50.667 21.3332Z" stroke="white" stroke-opacity="0.85" stroke-width="4" stroke-linecap="round" stroke-linejoin="round"/>
</g>
<defs>
<clipPath id="clip0_1516_189">
<rect width="64" height="64" fill="white"/>
</clipPath>
</defs>
</svg>
